HIERARCHY
ROOT Hips
{
	OFFSET 0.000000 0.000000 0.000000 
	CHANNELS 6 Xposition Yposition Zposition Yrotation Zrotation Xrotation 
	JOINT Lumbar
	{
		OFFSET 0.000000 0.000000 0.000000 
		CHANNELS 3 Zrotation Xrotation Yrotation
		JOINT Neck
		{
			OFFSET 0.000000 0.445665 0.000000 
			CHANNELS 3 Zrotation Xrotation Yrotation
			End Site
			{
				OFFSET 0.000000 0.227535 0.000000 
			}
		}
		JOINT RightShoulder
		{
			OFFSET 0.019635 0.377685 0.194865 
			CHANNELS 3 Zrotation Xrotation Yrotation
			JOINT RightElbow
			{
				OFFSET 0.000000 -0.243375 0.000000 
				CHANNELS 2 Zrotation Yrotation
				JOINT RightWrist
				{
					OFFSET 0.000000 -0.264825 0.000000 
					CHANNELS 2 Zrotation Xrotation
					End Site
					{
						OFFSET 0.006600 -0.176220 0.000990 
					}
				}
			}
		}
		JOINT LeftShoulder
		{
			OFFSET 0.019635 0.377685 -0.194865 
			CHANNELS 3 Zrotation Xrotation Yrotation
			JOINT LeftElbow
			{
				OFFSET 0.000000 -0.243375 0.000000 
				CHANNELS 2 Zrotation Yrotation
				JOINT LeftWrist
				{
					OFFSET 0.000000 -0.264825 0.000000 
					CHANNELS 2 Zrotation Xrotation
					End Site
					{
						OFFSET 0.006600 -0.176220 -0.000990 
					}
				}
			}
		}
	}
	JOINT RightHip
	{
		OFFSET 0.052140 -0.069960 0.075570 
		CHANNELS 3 Zrotation Xrotation Yrotation
		JOINT RightKnee
		{
			OFFSET 0.000000 -0.402270 0.000000 
			CHANNELS 1 Zrotation
			JOINT RightAnkle
			{
				OFFSET 0.000000 -0.404085 0.000000 
				CHANNELS 3 Zrotation Xrotation Yrotation
				End Site
				{
					OFFSET 0.204105 -0.089430 0.008415 
				}
			}
		}
	}
	JOINT LeftHip
	{
		OFFSET 0.052140 -0.069960 -0.075570 
		CHANNELS 3 Zrotation Xrotation Yrotation
		JOINT LeftKnee
		{
			OFFSET 0.000000 -0.402270 0.000000 
			CHANNELS 1 Zrotation
			JOINT LeftAnkle
			{
				OFFSET 0.000000 -0.404085 0.000000 
				CHANNELS 3 Zrotation Xrotation Yrotation
				End Site
				{
					OFFSET 0.204105 -0.089430 -0.008415 
				}
			}
		}
	}
}
MOTION
Frames: 32
Frame Time: 0.02
-0 0.95578 0 179.98524 0 -4.38587 6.91362 5.46871 -4.75033 -18.14668 6.82806 0.50435 29.51036 -17.75208 19.70769 14.45399 83.29465 -4.26066 -5.14499 37.31071 0.6748 -15.93316 13.31836 -82.25635 -7.08778 5.96486 -3.44462 6.67724 8.13972 -5.43156 1.09485 -4.11372 -6.4796 -3.3882 1.36028 -9.61465 -4.72116 5.9165 5.3311 6.97494
0.0005 0.95588 9e-05 180.02369 0 -4.39169 6.9251 5.45956 -4.68634 -18.22072 6.73389 0.52426 30.0763 -17.56218 20.4646 14.7329 83.28474 -4.32484 -5.37148 38.37285 0.39005 -16.52503 14.05451 -82.50666 -7.36158 6.42817 -3.40562 6.68341 8.1496 -5.45656 1.06165 -4.12458 -6.52612 -3.33848 1.36169 -9.69007 -4.75298 5.88548 5.33745 6.9898
0.00099 0.95598 0.00019 180.06122 0 -4.39754 6.93606 5.45064 -4.62231 -18.29419 6.64004 0.54437 30.63553 -17.37319 21.21601 15.0087 83.27437 -4.38778 -5.59536 39.42428 0.10736 -17.11441 14.78593 -82.75676 -7.63342 6.88879 -3.36666 6.68966 8.16007 -5.48168 1.0287 -4.13542 -6.57238 -3.28913 1.36316 -9.76472 -4.78469 5.85479 5.34391 7.0049
0.00148 0.95607 0.00028 180.09641 0 -4.40343 6.94597 5.44212 -4.55773 -18.36552 6.54617 0.56514 31.1762 -17.18508 21.95637 15.2776 83.26282 -4.4465 -5.81338 40.44861 -0.17084 -17.69949 15.50978 -83.01136 -7.903 7.34704 -3.32782 6.69615 8.17178 -5.50715 0.99646 -4.14616 -6.61789 -3.24086 1.36492 -9.83768 -4.81581 5.82489 5.35064 7.0207
0.00201 0.95617 0.00039 180.14515 0 -4.40892 6.96258 5.43098 -4.49634 -18.44748 6.45201 0.58201 31.8185 -16.9912 22.75967 15.58645 83.25843 -4.52771 -6.06532 41.62299 -0.47401 -18.30725 16.27884 -83.24559 -8.18803 7.82254 -3.28876 6.70122 8.17549 -5.53031 0.9605 -4.15728 -6.66719 -3.18701 1.36518 -9.92039 -4.84953 5.79048 5.35565 7.03226
0.00244 0.95626 0.00045 180.1644 0 -4.41537 6.96425 5.42572 -4.42809 -18.50734 6.35883 0.60739 32.24295 -16.81045 23.42605 15.80819 83.23829 -4.56116 -6.24331 42.47444 -0.72324 -18.8665 16.94801 -83.52035 -8.43773 8.25788 -3.24993 6.70936 8.19708 -5.55864 0.93242 -4.16766 -6.70858 -3.14488 1.3686 -9.98185 -4.87808 5.76588 5.36452 7.05314
0.0026 0.95629 0.00034 180.10615 0 -4.424 6.92909 5.43463 -4.33979 -18.502 6.26298 0.65533 32.07471 -16.65599 23.74169 15.80558 83.17761 -4.45979 -6.23046 42.46167 -0.83138 -19.30059 17.37815 -83.93851 -8.61306 8.61662 -3.21297 6.72587 8.2625 -5.59998 0.92603 -4.17572 -6.727 -3.13633 1.38134 -9.98832 -4.88946 5.76664 5.38279 7.09826
0.00265 0.9563 0.00017 180.01718 0 -4.43372 6.87778 5.45007 -4.24474 -18.47532 6.16875 0.71203 31.68504 -16.51631 23.91268 15.71172 83.10032 -4.3106 -6.14022 42.11764 -0.88341 -19.68363 17.70039 -84.39228 -8.74849 8.9284 -3.17589 6.7455 8.34725 -5.64689 0.92754 -4.18309 -6.73764 -3.13941 1.39717 -9.97246 -4.89607 5.77757 5.40517 7.15306
0.00276 0.95633 3e-05 179.93986 0 -4.44324 6.83122 5.46363 -4.15327 -18.46078 6.07747 0.7655 31.39019 -16.37634 24.13465 15.64946 83.02878 -4.18512 -6.07697 41.9074 -0.95653 -20.08601 18.0495 -84.80985 -8.88748 9.24046 -3.13811 6.76377 8.4266 -5.69207 0.92549 -4.19099 -6.75257 -3.13634 1.4112 -9.96466 -4.90688 5.78506 5.42658 7.20457
0.00285 0.95635 -0.00012 179.87299 0 -4.45145 6.79654 5.47177 -4.05932 -18.43497 5.97168 0.81608 31.11847 -16.20982 24.42601 15.63018 82.96527 -4.05148 -6.04929 41.76857 -1.04959 -20.5084 18.49517 -85.31187 -9.08856 9.64345 -3.10385 6.78182 8.49088 -5.73359 0.92348 -4.19804 -6.76433 -3.1368 1.42691 -9.96645 -4.9095 5.78781 5.4444 7.25168
0.00295 0.95636 -0.00025 179.77619 0 -4.46272 6.73212 5.4938 -3.96936 -18.42876 5.89518 0.87437 30.74773 -16.10141 24.52948 15.49802 82.88055 -3.92326 -5.92786 41.40142 -1.0861 -20.87221 18.71024 -85.64642 -9.15008 9.84325 -3.0618 6.80104 8.59209 -5.78439 0.92307 -4.2066 -6.78085 -3.13281 1.43986 -9.94195 -4.92757 5.80255 5.47045 7.30987
0.00304 0.95633 -0.00032 179.61093 0 -4.48161 6.59858 5.54368 -3.88802 -18.47136 5.91054 0.95504 30.14281 -16.15633 24.22456 15.09157 82.74556 -3.82363 -5.57881 40.49172 -0.99488 -21.12483 18.34917 -85.51027 -8.84332 9.51661 -3.00157 6.82299 8.78333 -5.85706 0.92678 -4.22021 -6.81233 -3.11249 1.44439 -9.85872 -4.99359 5.85018 5.52012 7.3998
0.00314 0.95628 -0.00036 179.41494 0 -4.50366 6.43355 5.60915 -3.81145 -18.5362 5.95332 1.0425 29.44879 -16.26838 23.72012 14.57222 82.5888 -3.73087 -5.13669 39.3619 -0.84602 -21.31093 17.75409 -85.2043 -8.39663 8.98302 -2.93267 6.84597 9.01289 -5.93956 0.93148 -4.23521 -6.84897 -3.08748 1.44599 -9.74795 -5.07457 5.90902 5.5776 7.50004
0.00325 0.95624 -0.00041 179.22916 0 -4.52464 6.27757 5.67307 -3.73566 -18.598 5.97589 1.12483 28.80517 -16.34957 23.2596 14.09423 82.43946 -3.63354 -4.72796 38.32899 -0.71385 -21.50538 17.24284 -84.97576 -8.00859 8.52877 -2.86587 6.8683 9.22908 -6.01886 0.93477 -4.24907 -6.8832 -3.06543 1.44902 -9.64462 -5.146 5.96131 5.63025 7.59304
0.00329 0.95619 -0.0005 179.05987 0 -4.54413 6.14505 5.71307 -3.64814 -18.62996 6.03065 1.21638 28.11145 -16.45048 22.99717 13.65361 82.30078 -3.54009 -4.35043 37.29976 -0.61959 -21.79961 16.82 -84.74732 -7.63799 8.13411 -2.80773 6.89146 9.42697 -6.09211 0.94266 -4.26504 -6.91711 -3.04039 1.45193 -9.56306 -5.22886 6.02041 5.68839 7.69651
0.00348 0.95616 -0.00048 178.84721 0 -4.56744 5.95414 5.80746 -3.58508 -18.72869 6.02561 1.28984 27.50447 -16.52553 22.26942 13.11132 82.13396 -3.4415 -3.89146 36.21236 -0.43372 -21.85936 16.16246 -84.47797 -7.20091 7.56792 -2.72837 6.91318 9.6742 -6.18134 0.94073 -4.27699 -6.95341 -3.02017 1.4541 -9.42851 -5.29154 6.06747 5.73699 7.78133
0.00401 0.95618 -0.0002 178.54006 0 -4.6007 5.62769 6.04049 -3.59839 -19.01255 5.84134 1.31499 27.15323 -16.49885 20.37105 12.30175 81.904 -3.32145 -3.19073 35.04003 -0.00554 -21.39576 14.88416 -84.13536 -6.5925 6.57048 -2.60155 6.92994 10.02881 -6.30339 0.91438 -4.27731 -6.99193 -3.01514 1.45705 -9.16606 -5.29548 6.08192 5.75646 7.80531
0.00468 0.95623 0.0002 178.18676 0 -4.63763 5.23942 6.32928 -3.6341 -19.36041 5.59672 1.32112 26.89382 -16.44683 18.00212 11.39739 81.64536 -3.19718 -2.41893 33.81348 0.51252 -20.68509 13.38446 -83.75706 -5.92628 5.41037 -2.45154 6.94545 10.43583 -6.44337 0.87747 -4.27359 -7.03347 -3.01455 1.45886 -8.84892 -5.27893 6.08322 5.76623 7.81159
0.00532 0.95627 0.00056 177.84363 0 -4.67283 4.86881 6.59746 -3.6533 -19.67671 5.38529 1.33361 26.59802 -16.41748 15.80345 10.5455 81.39319 -3.0789 -1.70616 32.60015 0.98614 -20.00883 12.0055 -83.39681 -5.30119 4.32904 -2.30684 6.96182 10.83089 -6.58024 0.84348 -4.27187 -7.07552 -3.01185 1.45992 -8.54956 -5.27079 6.08823 5.78092 7.83013
0.00584 0.95629 0.00087 177.5467 0 -4.70859 4.5447 6.84571 -3.70024 -20.00979 5.15288 1.35558 26.27923 -16.34437 13.77212 9.6478 81.16578 -2.94407 -0.87764 31.43061 1.47457 -19.63233 10.53083 -83.02514 -4.60864 3.2157 -2.18582 6.9765 11.17509 -6.6939 0.81768 -4.26951 -7.10914 -3.01092 1.46662 -8.28006 -5.26515 6.10308 5.79355 7.8304
0.00664 0.95637 0.00131 177.1409 0 -4.74376 4.10502 7.14911 -3.69357 -20.31585 4.94647 1.35372 26.02776 -16.35396 11.29519 8.82717 80.88304 -2.84209 -0.27404 30.15554 1.95578 -18.60711 9.20913 -82.66823 -4.04447 2.13846 -2.0077 6.995 11.63986 -6.86288 0.77204 -4.26751 -7.1618 -3.00549 1.46082 -7.93453 -5.25155 6.09433 5.80829 7.86545
0.00805 0.9566 0.00206 176.46387 0 -4.77796 3.39882 7.58554 -3.54214 -20.59054 4.85192 1.28629 25.97074 -16.61185 7.60075 8.22055 80.43077 -2.83667 -0.31439 28.6409 2.36886 -15.56055 8.3396 -82.38688 -3.85234 1.15613 -1.69774 7.01889 12.4013 -7.15654 0.67668 -4.26746 -7.25912 -3.00321 1.42478 -7.40241 -5.20067 6.02197 5.82914 7.99099
0.00976 0.9569 0.00295 175.67575 0 -4.81081 2.57121 8.07623 -3.33386 -20.82412 4.78046 1.19634 25.97268 -16.95068 3.49469 7.69958 79.92834 -2.86354 -0.58312 27.01586 2.77633 -11.92145 7.63815 -82.11868 -3.79193 0.2252 -1.32723 7.04758 13.28632 -7.51006 0.56154 -4.26798 -7.37681 -2.99326 1.3752 -6.79367 -5.14585 5.92651 5.85266 8.15345
0.0114 0.95717 0.00381 174.92666 0 -4.84365 1.7753 8.54601 -3.14647 -21.03859 4.68207 1.11952 25.92812 -17.24353 -0.35556 7.15426 79.46464 -2.87243 -0.74402 25.41721 3.20305 -8.74797 6.87595 -81.82687 -3.6691 -0.69908 -0.97148 7.07773 14.13012 -7.85116 0.45343 -4.26816 -7.48981 -2.9758 1.32951 -6.21396 -5.10649 5.8427 5.87649 8.30605
0.01274 0.95744 0.00455 174.22391 0 -4.88057 1.07796 9.00304 -2.98273 -21.41738 4.65219 1.02974 25.9711 -17.57559 -4.51469 6.5435 78.9328 -2.89508 -0.91892 23.91696 3.56178 -4.74835 6.03675 -81.60378 -3.55308 -1.75621 -0.6695 7.09281 14.91325 -8.12878 0.35199 -4.26825 -7.58356 -3.00453 1.29434 -5.6579 -5.01013 5.75378 5.89418 8.43082
0.01479 0.95773 0.00557 173.39934 0 -4.90696 0.14521 9.49736 -2.75346 -21.44018 4.48435 0.96197 25.84308 -17.84397 -8.11943 6.09127 78.53116 -2.89686 -1.12048 22.18623 4.06043 -2.31763 5.40466 -81.24668 -3.45727 -2.52187 -0.24055 7.13999 15.85067 -8.55469 0.23367 -4.2691 -7.7223 -2.93566 1.23278 -5.03366 -5.03003 5.66994 5.92464 8.62005
0.01874 0.95812 0.00727 172.26298 0 -4.91833 -1.39007 10.09343 -2.37887 -20.51415 3.94206 0.96095 25.23853 -17.92905 -10.11309 6.05141 78.50347 -2.83268 -1.33492 19.84607 4.94069 -4.48828 5.27163 -80.46872 -3.36491 -2.49824 0.51638 7.27802 17.18984 -9.35764 0.06045 -4.26878 -7.97964 -2.59504 1.11232 -4.25395 -5.38692 5.60731 5.99649 8.9998
0.02342 0.95852 0.00925 171.00947 0 -4.91629 -3.16117 10.72272 -1.93667 -19.22511 3.25746 0.98379 24.45612 -17.94433 -11.52921 6.16954 78.60854 -2.74656 -1.56957 17.27769 5.96345 -8.23538 5.34822 -79.56412 -3.29182 -2.18226 1.40017 7.44726 18.67832 -10.31096 -0.12642 -4.2699 -8.28167 -2.15735 0.9635 -3.40703 -5.85787 5.55004 6.07991 9.43928
0.02779 0.95889 0.01113 169.81039 0 -4.9117 -4.83554 11.32848 -1.51037 -18.08786 2.63126 0.99438 23.74984 -17.98454 -13.19283 6.21861 78.65122 -2.67069 -1.79855 14.81455 6.92349 -11.18186 5.35091 -78.74944 -3.22418 -1.99656 2.2311 7.60035 20.09468 -11.20702 -0.29853 -4.27234 -8.56368 -1.76659 0.82104 -2.58058 -6.26733 5.48978 6.15358 9.83726
0.03208 0.95939 0.0129 168.59869 0 -4.94467 -6.46975 11.97134 -1.14246 -17.01043 2.03521 1.00642 23.07128 -18.05927 -14.93087 6.25866 78.69973 -2.59445 -2.02065 12.34259 7.87145 -14.46702 5.26948 -77.80021 -3.10358 -1.8176 3.04464 7.76312 21.53468 -12.05848 -0.50803 -4.26614 -8.84518 -1.36308 0.70684 -1.78946 -6.7189 5.43235 6.24616 10.29677
0.0367 0.95961 0.01497 167.39154 0 -4.89487 -8.24251 12.54466 -0.64044 -15.71574 1.33865 1.02603 22.28476 -18.04067 -16.37565 6.3544 78.76964 -2.51373 -2.25884 9.83434 8.88264 -17.42375 5.41045 -77.09889 -3.09308 -1.55893 3.92284 7.91154 22.95766 -13.03768 -0.64191 -4.27869 -9.13811 -0.96394 0.52576 -0.91544 -7.10802 5.36894 6.30227 10.64227
0.04207 0.95905 0.01781 166.18619 0 -4.63131 -10.33542 12.91224 0.23936 -13.9704 0.43149 1.02212 21.30621 -17.81421 -17.11023 6.56066 78.85476 -2.42255 -2.53621 7.30038 9.99749 -19.13626 6.11782 -77.13262 -3.40717 -1.12429 4.95587 8.02579 24.30945 -14.33328 -0.56985 -4.33905 -9.4511 -0.59368 0.17945 0.21982 -7.31366 5.30261 6.25286 10.65406
